<?xml version="1.0" encoding="utf-8"?>
<!-- Generator: Adobe Illustrator 27.0.0, SVG Export Plug-In . SVG Version: 6.00 Build 0)  -->
<svg version="1.1" id="Ebene_1" xmlns="http://www.w3.org/2000/svg" xmlnsXlink="http://www.w3.org/1999/xlink" x="0px" y="0px"
	 viewBox="0 0 447.1 400.2" style="enable-background:new 0 0 447.1 400.2;" xml:space="preserve">
<style type="text/css">
	.st0{fill-rule:evenodd;clip-rule:evenodd;}
</style>
<path id="Fill-1" class="st0" d="M429.1,126.2c0,28.9-10.9,56.2-30.7,76.8c-27.7,28.9-55.4,57.8-83.2,86.7l-3,3.1
	c-28.1,29.3-56.2,58.6-84.3,87.9c-1.3,1.3-3,2.1-4.9,2.1c-1.7,0-3.4-0.7-4.7-1.9L48,203c-19.8-20.6-30.7-48-30.7-77
	c0-29,10.9-56.3,30.7-76.9C67.3,29,93.1,17.7,120.6,17.3h1.6c28.3,0,54.7,11.3,74.4,31.8l26.6,27.8l26.6-27.5
	c19.7-20.5,46.1-31.8,74.3-31.8h0c28.2,0,54.6,11.3,74.3,31.8C418.2,69.9,429.1,97.2,429.1,126.2 M410.8,37.4
	c-23-24-53.8-37.1-86.8-37.1c-33,0-63.8,13.2-86.7,37.1l-14.1,14.6L209,37.1c-22.2-23.1-51.9-36.2-83.6-37.1L125.3,0h-3.2
	C89.3,0,58.5,13.2,35.5,37.1C12.6,61,0,92.5,0,126c0,33.5,12.6,65,35.5,88.9l169.8,177.2l0.4,0.4c4.5,4.8,10.9,7.5,17.4,7.5
	c6.5,0,12.9-2.7,17.4-7.4c28.1-29.3,56.2-58.5,84.3-87.8l3.1-3.2c27.7-28.9,55.4-57.7,83-86.5c22.9-23.9,35.5-55.4,35.5-88.8
	C446.3,92.8,433.7,61.2,410.8,37.4"/>
</svg>
