<?xml version="1.0" encoding="UTF-8"?>
<svg width="92.29px" height="132.26px" viewBox="0 0 92.29 132.26" version="1.1" xmlns="http://www.w3.org/2000/svg" xmlnsXlink="http://www.w3.org/1999/xlink">
    <title>GoogleMaps</title>
    <defs>
        <polygon id="path-1" points="0 0 32.5655682 0 32.5655682 51.5980964 0 51.5980964"></polygon>
    </defs>
    <g id="GoogleMaps" stroke="none" strokeWidth="1" fill="none" fillRule="evenodd">
        <g id="Group-12">
            <path d="M25.446636,98.0095393 C29.2729236,102.885492 32.7557469,108.022312 35.8689504,113.382143 C38.5278727,118.423289 39.6353554,121.840723 41.5784404,127.914327 C42.7698964,131.269814 43.8470937,132.271298 46.1618635,132.271298 C48.6851896,132.271298 49.8291525,130.567743 50.7136245,127.932911 C52.5500222,122.197265 53.9913329,117.819646 56.2648043,113.683621 C60.7257091,105.698594 66.2686293,98.6028582 71.7151868,91.7824439 C73.1902244,89.8524367 82.7232487,78.6075978 87.0148304,69.7353463 C87.0148304,69.7353463 92.29,59.9889474 92.29,46.3777159 C92.29,33.6454499 87.0877908,24.8144967 87.0877908,24.8144967 L72.1102739,28.82525 L63.0143232,52.7817057 L60.7642542,56.0848814 L60.314791,56.6830185 L59.7159656,57.4325826 L58.6656122,58.6288567 L57.164419,60.1293616 L49.0644457,66.72883 L28.8152007,78.4203788 L25.446636,98.0095393 Z" id="Fill-1" fill="#34A853"></path>
            <path d="M4.54673637,68.0968362 C9.48876631,79.3857266 19.0190374,89.3090199 25.467767,98.0174548 L59.7164474,57.4480695 C59.7164474,57.4480695 54.8914294,63.7584498 46.1382546,63.7584498 C36.3897908,63.7584498 28.5135167,55.9730318 28.5135167,46.1564259 C28.5135167,39.4248029 32.5635033,34.8000816 32.5635033,34.8000816 L9.31462514,41.0299302 L4.54673637,68.0968362 Z" id="Fill-3" fill="#FBBC04"></path>
            <path d="M60.0985256,2.08597715 C71.4734541,5.75326622 81.2088401,13.452646 87.0979777,24.8069254 L59.7268409,57.4243229 C59.7268409,57.4243229 63.7768275,52.7163167 63.7768275,46.0266804 C63.7768275,35.9808688 55.317559,28.4769677 46.18031,28.4769677 C37.539329,28.4769677 32.5759616,34.7763351 32.5759616,34.7763351 L32.5759616,14.2276774 L60.0985256,2.08597715 Z" id="Fill-5" fill="#4285F4"></path>
            <path d="M10.8205677,16.498671 C17.6148264,8.37047717 29.5693077,0 46.0500827,0 C54.0454337,0 60.0701674,2.09864196 60.0701674,2.09864196 L32.5503567,34.7945063 L13.0520525,34.7945063 L10.8205677,16.498671 Z" id="Fill-7" fill="#1A73E8"></path>
            <g id="Group-11" transform="translate(0.000000, 16.498740)">
                <mask id="mask-2" fill="white">
                    <use xlink:href="#path-1"></use>
                </mask>
                <g id="Clip-10"></g>
                <path d="M4.54673637,51.5980964 C4.54673637,51.5980964 -0.000206491502,42.6941829 -0.000206491502,29.7953471 C-0.000206491502,17.6040888 4.73946177,6.94775072 10.8206365,0 L32.5655682,18.2985886 L4.54673637,51.5980964 Z" id="Fill-9" fill="#EA4335" mask="url(#mask-2)"></path>
            </g>
        </g>
    </g>
</svg>