<?xml version="1.0" encoding="utf-8"?>
<!-- Generator: Adobe Illustrator 27.0.0, SVG Export Plug-In . SVG Version: 6.00 Build 0)  -->
<svg version="1.1" id="Ebene_1" xmlns="http://www.w3.org/2000/svg" xmlnsXlink="http://www.w3.org/1999/xlink" x="0px" y="0px"
	 viewBox="0 0 400 400" style="enable-background:new 0 0 400 400;" xml:space="preserve">
<style type="text/css">
	.st0{fillRule:evenodd;clip-rule:evenodd;}
</style>
<path id="Fill-1" class="st0" d="M211.3,49.5l17.4-21.9l29.8,0v10.5h-22.1c-2.1,0-4.2,0.9-5.6,2.4l-13.2,13.4L211.3,49.5z
	 M225.5,366.1c22.3-5.1,36.1-8.4,39.5-9.5l0.2-0.1c14.9-7.4,63.4-31.7,71.9-39.6h0.1l0.4-0.6c2.8-3.5,4.4-8,4.5-12.5
	c0.1-4.5-1.3-9-3.9-12.7c-3.9-5.4-10-8.9-16.6-9.5c1.8-11.1,0.2-22.4-4.5-32.6c-5-10.8-13.1-19.6-23.4-25.4c-3.7-2.1-7.5-3.8-11.6-5
	c-1.5-10.9-6.1-21.1-13.4-29.4c-7.1-8.1-16.2-14-26.5-17l14.2-31l0,0c0.9-2.1,3-3.4,5.2-3.4H348c2.3,0,4.3,1.3,5.2,3.4l24,51.8
	c4.5,9.8,6.9,20.7,6.9,31.6v147.1c0.1,3.2-1.1,6.3-3.3,8.6c-2.2,2.3-5.2,3.7-8.3,3.8H237.1c-3.2-0.1-6.2-1.5-8.4-3.8
	c-2.2-2.3-3.4-5.4-3.3-8.7V366.1z M175.3,228.6l0.4-0.3c3.4-2.4,7.2-4.2,11.2-5.5c0,0,0,0,0,0c0.1,0.1,0.1,0.3,0.2,0.5
	c3.3,9.3-5,20.9-10.6,23.4l-0.9,0.4v0c-13.8,6.5-27.1,14.2-39.6,23c-2.8,1.2-4.8,3.8-5.1,6.9c-0.4,6.5,12.8,16,23.9,22.8
	c12.5,7.6,26.5,14.2,32,15.1c13.2,1.8,53.8,6.5,57.6,5.7c0.4-0.1,40.6-11.6,65.8-21.4c3.4-1.3,11.5-3.8,14.5,0.9l0.1,0.1
	c1.2,1.6,1.5,3.7,0.8,5.6c-4.2,3.7-33.8,19.7-66.8,36.2c-24.5,6.2-79.2,18.8-93.1,18.8c-14.9,0-94.4-12.9-130.6-19.1l-19.4,0
	l-0.2-61.1l34.5,0c2.8,0,5.5-1.5,6.9-4c0.2-0.4,21.6-37.2,59.8-34.4C149.6,244.5,164.5,235.3,175.3,228.6L175.3,228.6z M118.2,199.5
	L118.2,199.5c3.9-6.9,10.2-12.1,17.7-14.7c7.5-2.6,15.6-2.4,23,0.6c2.6,0.9,4.7,0.8,6.5-0.1c2.9-1.6,3.9-5.4,4.8-9
	c0.5-2,1-4.1,1.9-5.6c2.6-4.9,7.3-8.4,12.8-9.5c5.5-1.1,11.1,0.3,15.4,3.8c4.3,3.5,6.8,8.7,6.9,14.4c0.1,2.4,1.2,4.6,3.1,6.1
	c1.9,1.5,4.3,2,6.7,1.5c11.9-2.8,24.4-0.2,34.1,7.3c9.7,7.5,15.5,18.8,15.9,31.1c0.1,3.7,2.8,6.9,6.5,7.5c4.4,0.8,8.7,2.4,12.6,4.6
	c8.1,4.6,14.3,11.9,17.7,20.6c3.3,8.4,3.6,17.8,1,26.5l0,0c-13.8,5.4-34.7,12.2-62.2,20.3l-0.7,0.2l-0.1,0
	c-33.3-3.1-46.9-4.9-52.4-5.7c-7.2-1.1-26.5-12.8-37.5-20.8c9.9-6.6,20.5-12.5,31.2-17.5c18.1-8,23.5-30.8,19.2-43
	c-1.1-4-3.8-7.4-7.5-9.4c-3.6-2-8-2.4-11.9-1.2l-0.1,0c-6.4,2.6-11.5,5.4-16.4,8.2c-12.7,7.1-23.7,13.2-50.4,10.7
	C112.6,217.4,113.5,207.7,118.2,199.5L118.2,199.5z M282.5,121.9h44.6V98.8h-44.6V121.9z M313,63.8v19.1h-16.4V63.8L313,63.8z
	 M274.2,48h61.2V15.8h-61.2V48z M367.6,134.6c-1.7-3.8-4.5-6.9-7.9-9.2c-3.5-2.3-7.5-3.5-11.7-3.5h-5.1V90.8c0-4.4-3.5-7.9-7.9-7.9
	h-6.2v-19h7.6c3.9,0,7.7-1.5,10.5-4.2c2.8-2.8,4.4-6.5,4.4-10.4V14.7c0-3.9-1.5-7.6-4.3-10.4c-2.8-2.8-6.5-4.3-10.4-4.3h-63.4
	c-3.6,0.1-7,1.4-9.6,3.9c-2.3,2.1-3.9,4.9-4.5,8H225c-2.4,0-4.7,1.1-6.2,3l-25,31.5c-1.3,1.7-1.9,3.8-1.6,6c0.3,2.1,1.5,4.1,3.3,5.3
	l18.3,13l0.1,0.1c3.2,2.4,7.8,2,10.5-0.9l15.5-15.9h19.7c0.9,2.7,2.7,5.1,4.9,6.8c2.6,2,5.8,3.1,9,3.1h7.6l0,19.2h-6.2
	c-4.4,0-7.9,3.5-7.9,7.9v31h-5.3c-4.1,0-8.2,1.3-11.6,3.5c-3.5,2.3-6.2,5.4-7.9,9.2L225.6,170c-1.4,0-2.9,0.1-4.3,0.2
	c-2.4-8.4-8.1-15.7-15.6-20.1c-7.9-4.6-17.5-5.9-26.4-3.6c-8.9,2.4-16.5,8.3-21,16.3c-0.9,1.7-1.8,3.4-2.4,5.3
	c-16.2-3.2-33.1,2.3-44.5,14.3c-11.3,12-15.7,29.1-11.7,45c-29,5.4-46.9,27.3-53.7,37.4H7.9c-2.1,0-4.2,0.9-5.6,2.4
	c-1.5,1.5-2.3,3.6-2.3,5.7v77.1c0.2,4.2,3.7,7.5,7.9,7.5h0l25.2,0c4.3,0.7,112.6,19.2,132.4,19.2l0.1,0c14.7-1.3,29.5-3.6,43.9-7
	v2.1c-0.1,7.4,2.7,14.5,7.9,19.8c5.2,5.3,12.1,8.4,19.6,8.5h135.5c7.4-0.1,14.4-3.1,19.5-8.5c5.2-5.3,8-12.4,7.9-19.8V224.6
	c0-13.2-2.9-26-8.4-38.1L367.6,134.6z"/>
</svg>
