<?xml version="1.0" encoding="utf-8"?>
<!-- Generator: Adobe Illustrator 27.0.0, SVG Export Plug-In . SVG Version: 6.00 Build 0)  -->
<svg version="1.1" id="Ebene_1" xmlns="http://www.w3.org/2000/svg" xmlnsXlink="http://www.w3.org/1999/xlink" x="0px" y="0px"
	 viewBox="0 0 425.9 400" style="enable-background:new 0 0 425.9 400;" xml:space="preserve">
<style type="text/css">
	.st0{fillRule:evenodd;clip-rule:evenodd;}
</style>
<path class="st0" d="M409.5,89.4v252.8c0,4-1.6,7.8-4.4,10.6c-2.8,2.8-6.7,4.4-10.6,4.4H31.2c-4,0-7.8-1.6-10.6-4.4
	c-2.8-2.8-4.4-6.6-4.4-10.6V89.4c0-4,1.6-7.8,4.4-10.6c2.8-2.8,6.7-4.4,10.6-4.4h363.2c4,0,7.8,1.6,10.6,4.4
	C407.9,81.5,409.5,85.4,409.5,89.4L409.5,89.4z M134.1,57.6c0-11.1,4.3-21.5,12.1-29.3c7.8-7.8,18.2-12.1,29.3-12.1h74.5
	c11.1,0,21.5,4.3,29.3,12.1c7.8,7.8,12.1,18.2,12.1,29.3v0.5H134.1V57.6z M53.8,383.8H85v-10.2H53.8V383.8z M371.9,383.8h-31.2
	v-10.2h31.1L371.9,383.8z M394.5,58.2h-86.7v-0.5c0-15.4-6-29.9-16.9-40.8C279.9,6,265.5,0,250.1,0h-74.5c-15.4,0-29.9,6-40.7,16.9
	C123.9,27.8,118,42.2,118,57.6v0.5H31.2c-8.3,0-16.2,3.2-22.1,9.1C3.2,73.2,0,81,0,89.4v252.8c0,8.3,3.2,16.2,9.1,22.1
	c5.9,5.9,13.7,9.1,22.1,9.1h6.4v18.5c0,2.2,0.8,4.2,2.4,5.7c1.5,1.5,3.6,2.4,5.7,2.4h47.3c2.2,0,4.2-0.8,5.7-2.4
	c1.5-1.5,2.4-3.6,2.4-5.7v-18.5h223.4v18.5c0,2.2,0.8,4.2,2.4,5.7c1.5,1.5,3.6,2.4,5.7,2.4h47.3c2.1,0,4.2-0.9,5.7-2.4
	c1.5-1.5,2.4-3.6,2.4-5.7v-18.5h6.4c8.3,0,16.2-3.2,22.1-9.1c5.9-5.9,9.1-13.7,9.1-22.1V89.4c0-8.3-3.2-16.2-9.1-22.1
	C410.6,61.4,402.8,58.2,394.5,58.2L394.5,58.2z M191.9,236.7c-1.5-1.5-3.6-2.4-5.7-2.4h-42.1c-0.1,0-0.3-0.1-0.3-0.3v-36.6
	c0-0.1,0.1-0.3,0.3-0.3h42.1c2.2,0,4.2-0.8,5.7-2.4c1.5-1.5,2.4-3.6,2.4-5.7v-41.9c0-0.1,0.1-0.3,0.3-0.3h36.6
	c0.1,0,0.3,0.1,0.3,0.3v41.9c0,2.1,0.9,4.2,2.4,5.7c1.5,1.5,3.6,2.4,5.7,2.4h42.1c0.1,0,0.3,0.1,0.3,0.3v36.6c0,0.1-0.1,0.3-0.3,0.3
	h-42.1c-4.5,0-8.1,3.6-8.1,8.1v42c0,0.1-0.1,0.3-0.3,0.3h-36.6c-0.1,0-0.3-0.1-0.3-0.3v-42C194.3,240.3,193.4,238.2,191.9,236.7
	 M281.6,181h-34v-33.8c0-4.4-1.7-8.5-4.8-11.6c-3.1-3.1-7.3-4.8-11.6-4.8h-36.6c-4.3,0-8.6,1.8-11.6,4.8c-3.1,3.1-4.8,7.2-4.8,11.6
	V181h-34c-4.4,0-8.5,1.7-11.6,4.8c-3.1,3.1-4.8,7.2-4.8,11.6v36.6c0,4.4,1.7,8.5,4.8,11.6c3.1,3.1,7.2,4.8,11.6,4.8h34v33.9
	c0,4.3,1.8,8.6,4.8,11.6c3.1,3.1,7.3,4.8,11.6,4.8h36.6c4.4,0,8.5-1.7,11.6-4.8c3.1-3.1,4.8-7.3,4.8-11.6v-33.9h34
	c4.4,0,8.5-1.7,11.6-4.8c3.1-3.1,4.8-7.2,4.8-11.6v-36.6c0-4.4-1.7-8.5-4.8-11.6C290.1,182.7,285.9,181,281.6,181"/>
</svg>
