<?xml version="1.0" encoding="UTF-8"?>
<svg width="30px" height="30px" viewBox="0 0 30 30" version="1.1" xmlns="http://www.w3.org/2000/svg" xmlnsXlink="http://www.w3.org/1999/xlink">
    <title>Fill 1</title>
    <g id="Symbols" stroke="none" strokeWidth="1" fill="none" fillRule="evenodd">
        <g id="Unterkunft-Card" transform="translate(-102.000000, -312.000000)" fill="#111111">
            <g id="Group" transform="translate(30.000000, 294.000000)">
                <g id="Group-3" transform="translate(72.000000, 18.000000)">
                    <path d="M23.8583696,29.9742989 C10.9334608,27.7085283 2.91921458,19.7038918 0.037745641,6.18135634 C-0.0602054903,5.72099337 0.0346102014,5.23718598 0.297422744,4.85442777 C1.52933694,3.05785876 3.0320904,1.53309447 4.76416992,0.321695437 C5.32854903,-0.0681462476 6.0751599,-0.106572514 6.66894944,0.222276091 C9.03965528,1.52350357 11.0433893,3.5061861 12.6221458,6.11371859 C13.0648071,6.8431908 12.9550668,7.77269273 12.354442,8.37284457 L9.70010426,11.0262002 C9.45121307,11.2749993 9.3950887,11.6672858 9.56364993,11.9799615 C10.5532574,13.8120732 11.7609033,15.446788 13.153979,16.8390977 C14.5465532,18.2311566 16.181873,19.4386064 18.0149137,20.4280985 C18.327956,20.5970361 18.7198859,20.5409952 18.9687771,20.2916946 L21.6233656,17.638339 C22.2237396,17.0376856 23.1531466,16.9279858 23.8840802,17.371173 C26.4926405,18.9495961 28.475806,20.9520873 29.7784558,23.3238593 C30.1059838,23.9154859 30.0679822,24.6615698 29.6801911,25.2222924 C28.4620101,26.9628205 26.9302852,28.4694686 25.1252126,29.7030584 C24.8415808,29.8970076 24.4996297,30 24.1549195,30 C24.0557769,30 23.9565716,29.9914121 23.8583696,29.9742989 Z" id="Fill-1"></path>
                </g>
            </g>
        </g>
    </g>
</svg>