<?xml version="1.0" encoding="utf-8"?>
<!-- Generator: Adobe Illustrator 27.0.0, SVG Export Plug-In . SVG Version: 6.00 Build 0)  -->
<svg version="1.1" id="Ebene_1" xmlns="http://www.w3.org/2000/svg" xmlnsXlink="http://www.w3.org/1999/xlink" x="0px" y="0px"
	 viewBox="0 0 400 400" style="enable-background:new 0 0 400 400;" xml:space="preserve">
<path id="Icon-Sleep" d="M26.5,382.1c-1.3,1.3-3.1,2-5,1.7l-0.2,0c-3,0-4.6-1.1-5.1-1.6V97.2c0.5-0.5,2.2-1.6,5.1-1.6l0.2,0
	c1.8-0.2,3.7,0.4,5,1.7V382.1z M119.1,261.8c-1.9-1.4-4-2.4-6.2-3.1c2.6-3.2,4.7-6.8,6.2-10.5V261.8z M357.2,271.3H135.3v-69.8
	h177.2C336.2,201.5,354.5,237.3,357.2,271.3L357.2,271.3z M42.7,261.2v-12.9c1.5,3.7,3.5,7.1,6,10.2C46.6,259.1,44.5,260,42.7,261.2
	L42.7,261.2z M42.7,287.3c3.5-0.9,6.1-4.1,6.1-7.9c0-2.8,2.3-5.1,5.1-5.1h53.5c1.3,0,2.7,0.5,3.6,1.5c1,1,1.5,2.3,1.5,3.6
	c0,2.2,0.8,4.2,2.4,5.7c1.5,1.5,3.6,2.4,5.7,2.4h236.7v36.7H42.7V287.3z M98.6,250.8c-4.7,4.7-11,7.3-17.7,7.3
	c-6.7,0-12.9-2.6-17.7-7.3c-4.7-4.7-7.3-11-7.3-17.7c0-6.7,2.6-12.9,7.3-17.7c4.7-4.7,11-7.3,17.7-7.3c6.7,0,12.9,2.6,17.7,7.3
	c4.7,4.7,7.3,11,7.3,17.7C105.9,239.8,103.3,246,98.6,250.8L98.6,250.8z M373.5,383V202.3c3.3-1,6.9-1,10.3,0V383
	C380.5,384,376.9,384,373.5,383L373.5,383z M378.7,185.3h-1.5v0c-11.8,0.4-19.9,6.1-19.9,14.2v16.8c-11.6-20-27.4-31-44.8-31H127.2
	c-4.5,0-8.1,3.6-8.1,8.1v24.1c-2.1-5.3-5.4-10.2-9.6-14.2c-7.7-7.5-17.9-11.6-28.7-11.6s-20.9,4.1-28.7,11.6
	c-4.2,4-7.4,8.8-9.5,14.1V96.8c0-9.7-9.4-17.4-21.3-17.4C9.4,79.4,0,87,0,96.8v285.9c0,9.9,9.2,17.4,21.3,17.4
	c12.2,0,21.3-7.5,21.3-17.4v-42.2h314.6v45.4c0,8.4,8.8,14.2,21.3,14.2c12.6,0,21.3-5.8,21.3-14.2V199.5
	C400,191.1,391.2,185.3,378.7,185.3L378.7,185.3z M93.4,157.1c1.3,2.8,4.2,4.7,7.3,4.7h0h41.2v-16.2H118l22-26.4
	c2-2.4,2.4-5.8,1.1-8.6c-1.3-2.9-4.2-4.7-7.4-4.7h0H92.6v16.2h23.9l-22,26.4C92.5,150.9,92.1,154.3,93.4,157.1 M167.4,115.6
	c-1.9,2.5-2.2,5.7-0.9,8.5c1.3,2.7,4,4.4,7,4.5H228v-16.2h-38.1L225.9,66c2-2.4,2.5-5.7,1.2-8.5l0-0.1c-1.4-2.8-4.2-4.5-7.3-4.5h0
	h-54.4v16.2h38.1L167.4,115.6z M259.6,95.6h67.7V79.4h-51.4L325.6,13c1.9-2.5,2.1-5.7,0.8-8.5C325,1.7,322.2,0,319.1,0h-61v16.2
	h44.8l-49.8,66.4c-1.8,2.5-2.1,5.7-0.7,8.5C253.7,93.9,256.5,95.6,259.6,95.6"/>
</svg>
